<svg id="Calque_1" data-name="Calque 1" xmlns="http://www.w3.org/2000/svg" viewBox="0 0 320 320"><title>Plan de travail 1</title><path d="M208.62,233.78a21.14,21.14,0,0,0,21.12-21.12,1.8,1.8,0,0,0-3.6,0,17.54,17.54,0,0,1-17.52,17.52,1.8,1.8,0,1,0,0,3.6Zm0,0"/><path d="M237.6,210.86a1.8,1.8,0,0,0-1.8,1.8,27.21,27.21,0,0,1-27.18,27.17,1.8,1.8,0,1,0,0,3.6,30.81,30.81,0,0,0,30.78-30.78,1.8,1.8,0,0,0-1.8-1.8Zm0,0"/><path d="M208.62,224.12a11.47,11.47,0,0,0,11.46-11.46,1.8,1.8,0,0,0-3.6,0,7.87,7.87,0,0,1-7.86,7.86,1.8,1.8,0,1,0,0,3.6Zm0,0"/><path d="M231.1,166.46a1.8,1.8,0,0,0,2.55-2.55l-2-2a1.8,1.8,0,0,0-2.55,2.55Zm0,0"/><path d="M223.57,153.83a1.8,1.8,0,1,0-2.55,2.55l2,2a1.8,1.8,0,0,0,2.55-2.55Zm0,0"/><path d="M251,158.87l-22.4-22.4a1.8,1.8,0,0,0-2.55,0l-21.12,21.12-.9-.9a1.8,1.8,0,0,0-2.55,0l-59.05,59.05a8.85,8.85,0,0,0,0,12.5l16.8,16.8a8.85,8.85,0,0,0,12.5,0L230.79,186a1.8,1.8,0,0,0,0-2.55l-.9-.9L251,161.42a1.8,1.8,0,0,0,0-2.55ZM227.34,180,215,167.65a1.8,1.8,0,0,0-2.55,2.55L227,184.72l-57.78,57.78a5.24,5.24,0,0,1-7.41,0L145,225.7a5.25,5.25,0,0,1,0-7.41l57.78-57.78.9.9h0l3.68,3.68a1.8,1.8,0,0,0,2.55-2.55l-2.41-2.41,19.85-19.85,19.85,19.85Zm0,0"/><path d="M157.64,93a1.8,1.8,0,0,1,2.55-2.55l2,2A1.8,1.8,0,0,1,159.62,95Z"/><path d="M170.27,100.53a1.8,1.8,0,0,1-2.55,2.55l-2-2a1.8,1.8,0,1,1,2.55-2.55Z"/><path d="M162.68,73.09,141.56,94.22l-.9-.9a1.8,1.8,0,0,0-2.55,0l-11.92,11.92a8.85,8.85,0,0,0,0,12.5l6.26,6.26c-6.37,3.25-7.15,10.54-7.83,17.05s-1.32,12.6-6.35,15.91c-5.9,3.89-10,2.14-15.09-.07-5.38-2.32-12.08-5.2-21.52-.69-7.12,3.4-12.25,11.26-13.07,20q-.12,1.24-.12,2.45a24.24,24.24,0,0,0,10.19,19.82,2.25,2.25,0,1,0,2.67-3.63,19.87,19.87,0,0,1-8.26-18.22c.68-7.21,4.81-13.63,10.53-16.36,7.6-3.63,12.55-1.5,17.8.76s11.41,4.91,19.35-.31c6.81-4.49,7.63-12.3,8.35-19.2.8-7.63,1.57-12.42,6.79-14.08l7.11,7.11a8.85,8.85,0,0,0,12.5,0l11.92-11.92a1.8,1.8,0,0,0,0-2.55l-.9-.9L187.63,98a1.8,1.8,0,0,0,0-2.55l-22.4-22.4a1.8,1.8,0,0,0-2.55,0ZM164,76.91l19.85,19.85L164,116.62l-2.41-2.41a1.8,1.8,0,0,0-2.55,2.55l3.68,3.68h0l.9.9L152.94,132a5.25,5.25,0,0,1-7.41,0l-16.8-16.8a5.24,5.24,0,0,1,0-7.41l10.64-10.64,14.52,14.52a1.8,1.8,0,0,0,2.55-2.55L144.11,96.76Z"/></svg>