<svg id="Calque_1" data-name="Calque 1" xmlns="http://www.w3.org/2000/svg" viewBox="0 0 320 320"><title>Plan de travail 3</title><path d="M296.66,233.72l-.3-.72h-.77a1.17,1.17,0,0,0-.81.31H278.11a12.56,12.56,0,0,0,1.3-5.56V92.64a12.82,12.82,0,0,0-12.82-12.81H53.46A12.82,12.82,0,0,0,40.65,92.64V227.75A12.66,12.66,0,0,0,42,233.4h-.65v0H25.21a1.09,1.09,0,0,0-.79-.32h-.77l-.29.72c-.21.49-.27.65.33,1.33h0l.07.07c.29.32.73.76,1.36,1.39l.18.15c4.23,2.81,26.86,3.51,29.43,3.57l1.19,0v0c79.45,0,211.25-.06,211.43-.08h.28c5.05,0,23.37-1.13,27.12-3.61l.18-.15c.64-.63,1.07-1.07,1.37-1.39l.07-.07h0c.6-.67.53-.83.33-1.32ZM43,92.64A10.48,10.48,0,0,1,53.46,82.17H266.59a10.49,10.49,0,0,1,10.48,10.47V227.75a10.31,10.31,0,0,1-1.72,5.65H44.71A10.35,10.35,0,0,1,43,227.75ZM267.61,237.93h-.29c-1.35,0-210.47.07-212.57.07h-.47c-8-.24-19.55-1-25-2.23H46.38l0,0h-3.8v0h3.79v0h98.35v0h.58v0H174.7v0h.58v0H279.76v0H285v-.07h5.73c-5.73,1.36-18,2.29-23.17,2.29Zm0,0"/><path d="M175.28,237v-1.31h-.58v.73H145.3v-.73h-.59V237Zm0,0"/><path d="M269.18,89.17H50.81v136H269.18Zm-2.32,133.65H53.14V91.5H266.86Zm0,0"/></svg>