<?xml version="1.0" encoding="utf-8"?>
<!-- Generator: Adobe Illustrator 21.0.2, SVG Export Plug-In . SVG Version: 6.00 Build 0)  -->
<svg version="1.0" id="Calque_1" xmlns="http://www.w3.org/2000/svg" xmlns:xlink="http://www.w3.org/1999/xlink" x="0px" y="0px"
	 viewBox="0 0 1280 800" style="enable-background:new 0 0 1280 800;" xml:space="preserve">
<style type="text/css">
	.st0{fill:#FCFCFC;}
</style>
<path id="path4358" inkscape:connector-curvature="0" class="st0" d="M183.9,437.4c3.5,0,6.6,1.3,9.1,3.8c2.5,2.5,3.8,5.5,3.8,9
	c0,3.5-1.3,6.6-3.8,9.1c-2.5,2.5-5.5,3.8-9.1,3.8c-42.8,0-64.2-21.4-64.2-64.2v-89.9h-12.9c-3.5,0-6.5-1.3-9.1-3.8
	c-2.5-2.5-3.8-5.6-3.8-9.1c0-3.5,1.3-6.6,3.8-9.1c2.5-2.5,5.6-3.8,9.1-3.8h12.9V219c0-3.5,1.2-6.5,3.8-9.1c2.5-2.5,5.6-3.8,9.1-3.8
	c3.5,0,6.6,1.3,9.1,3.8c2.5,2.5,3.8,5.5,3.8,9.1v64.2h25.9c3.5,0,6.6,1.3,9.1,3.8c2.5,2.5,3.8,5.5,3.8,9.1c0,3.5-1.3,6.6-3.8,9.1
	c-2.5,2.5-5.6,3.8-9.1,3.8h-25.9v89.9C145.4,424.5,158.2,437.4,183.9,437.4"/>
<path id="path4360" inkscape:connector-curvature="0" class="st0" d="M229.4,219c0-3.5,1.3-6.5,3.8-9.1c2.5-2.5,5.5-3.8,9.1-3.8
	c3.5,0,6.6,1.3,9.1,3.8c2.5,2.5,3.8,5.5,3.8,9.1v87.5c16.1-15.5,35.3-23.3,57.8-23.3c23,0,42.7,8.2,59,24.5
	c16.3,16.3,24.5,36,24.5,59v83.5c0,3.5-1.3,6.6-3.8,9.1c-2.5,2.5-5.6,3.8-9.1,3.8s-6.5-1.3-9.1-3.8c-2.5-2.5-3.8-5.5-3.8-9.1v-83.5
	c0-15.9-5.7-29.6-16.9-40.9c-11.3-11.3-24.9-16.9-40.9-16.9c-16,0-29.6,5.6-40.9,16.9c-11.3,11.3-16.9,24.9-16.9,40.9v83.5
	c0,3.5-1.3,6.6-3.8,9.1c-2.5,2.5-5.5,3.8-9.1,3.8c-3.5,0-6.6-1.3-9.1-3.8c-2.5-2.5-3.8-5.5-3.8-9.1L229.4,219"/>
<path id="path4362" inkscape:connector-curvature="0" class="st0" d="M1049.4,382.7c-9.6,0-18.6,1.8-26.9,5.4
	c-8.3,3.7-15.5,8.6-21.7,14.9c-6.2,6.3-11.1,13.6-14.7,21.9c-3.6,8.3-5.4,17.3-5.4,26.9c0,9.6,1.8,18.6,5.4,26.9
	c3.6,8.3,8.5,15.6,14.7,21.9c6.2,6.3,13.4,11.3,21.7,14.9c8.3,3.6,17.3,5.4,26.9,5.4c9.4,0,18.3-1.8,26.6-5.4
	c8.3-3.6,15.6-8.6,21.9-14.9c6.3-6.3,11.2-13.6,14.9-21.9c3.6-8.3,5.4-17.3,5.4-26.9c0-9.6-1.8-18.6-5.4-26.9
	c-3.6-8.3-8.6-15.6-14.9-21.9c-6.3-6.3-13.6-11.3-21.9-14.9C1067.7,384.5,1058.8,382.7,1049.4,382.7z M1049.4,548.8
	c-13.4,0-25.9-2.6-37.7-7.7c-11.7-5.1-21.9-12-30.6-20.9c-8.8-8.8-15.7-19.1-20.8-30.8c-5.1-11.7-7.7-24.3-7.7-37.6
	c0-13.4,2.6-25.9,7.7-37.7c5.1-11.7,12-22,20.8-30.8c8.7-8.8,18.9-15.8,30.6-20.9c11.7-5.1,24.3-7.7,37.7-7.7
	c13.4,0,25.9,2.6,37.7,7.7c11.7,5.1,21.9,12.1,30.6,20.9c8.7,8.8,15.6,19.1,20.8,30.8c5.1,11.7,7.7,24.3,7.7,37.7
	c0,13.4-2.6,25.9-7.7,37.6c-5.1,11.7-12,22-20.8,30.8c-8.7,8.8-18.9,15.8-30.6,20.9C1075.3,546.2,1062.8,548.8,1049.4,548.8"/>
<path id="path4364" inkscape:connector-curvature="0" class="st0" d="M492.1,450.1L430.5,302c-1-1.8-1.4-3.8-1.4-5.9
	c0-3.5,1.3-6.6,3.8-9.1c2.5-2.5,5.5-3.8,9.1-3.8c3.6,0,6.6,1.2,9.2,3.7c1.4,1.5,2.4,3.1,3,4.8l52,124.8l52-124.8
	c0.6-1.7,1.7-3.3,3.2-4.8c2.4-2.5,5.5-3.7,9-3.7c3.5,0,6.6,1.3,9.1,3.8c2.5,2.5,3.8,5.5,3.8,9.1c0,2.1-0.5,4.1-1.4,5.9l-85.1,204.3
	c-0.6,1.7-1.7,3.3-3.1,4.7c-2.6,2.6-5.6,3.8-9.1,3.8c-3.5,0-6.6-1.2-9.1-3.8s-3.8-5.6-3.8-9.1c0-2.1,0.5-4.1,1.5-5.9L492.1,450.1"/>
<path id="path4366" inkscape:connector-curvature="0" class="st0" d="M641.5,450.2c0,3.5-1.3,6.6-3.8,9.1c-2.5,2.5-5.5,3.8-9.1,3.8
	c-3.5,0-6.5-1.3-9.1-3.8c-2.5-2.5-3.8-5.5-3.8-9.1V296.1c0-3.5,1.3-6.6,3.8-9.1c2.5-2.5,5.6-3.8,9.1-3.8c3.5,0,6.6,1.3,9.1,3.8
	c2.5,2.5,3.8,5.5,3.8,9.1v3.4c12.7-10.8,27.7-16.2,45-16.2c19.5,0,36.1,6.9,49.9,20.7c2.9,2.9,5.5,5.9,7.9,9.1
	c2.4-3.2,5-6.3,7.9-9.1c13.8-13.8,30.5-20.7,49.9-20.7c19.5,0,36.1,6.9,49.9,20.7c13.8,13.8,20.7,30.5,20.7,49.9v96.3
	c0,3.5-1.3,6.6-3.8,9.1c-2.5,2.5-5.5,3.8-9.1,3.8c-3.5,0-6.6-1.3-9.1-3.8c-2.5-2.5-3.8-5.5-3.8-9.1v-96.3c0-12.4-4.4-23-13.2-31.8
	c-8.8-8.8-19.4-13.2-31.8-13.2c-12.4,0-23,4.4-31.8,13.2c-8.8,8.8-13.2,19.4-13.2,31.8v96.3c0,3.5-1.3,6.6-3.8,9.1
	c-2.5,2.5-5.5,3.8-9.1,3.8c-3.5,0-6.5-1.3-9.1-3.8c-2.5-2.5-3.8-5.5-3.8-9.1v-96.3c0-12.4-4.4-23-13.2-31.8
	c-8.8-8.8-19.4-13.2-31.8-13.2c-12.4,0-23,4.4-31.8,13.2c-8.8,8.8-13.2,19.4-13.2,31.8L641.5,450.2"/>
<path id="path4368" inkscape:connector-curvature="0" class="st0" d="M1049.4,305.8c-50.9,0-95.8,26.2-122,65.9v-75.6
	c0-3.5-1.3-6.6-3.8-9.1c-2.5-2.5-5.5-3.8-9.1-3.8c-3.5,0-6.6,1.3-9.1,3.8c-2.5,2.5-3.8,5.5-3.8,9.1v154.2c0,3.5,1.2,6.6,3.8,9.1
	c2.5,2.5,5.6,3.8,9.1,3.8c3.5,0,6.6-1.3,9.1-3.8c2.5-2.5,3.8-5.5,3.8-9.1v-17.6c9.3-59.1,60.3-104.4,122-104.4
	c68.2,0,123.6,55.5,123.6,123.6c0,68.2-55.4,123.6-123.6,123.6c-33,0-64.1-12.9-87.4-36.2c-4.4-4.4-11.5-4.4-15.8,0
	c-4.4,4.4-4.4,11.5,0,15.8c27.6,27.6,64.2,42.8,103.2,42.8c80.5,0,146-65.5,146-146C1195.4,371.3,1129.9,305.8,1049.4,305.8"/>
<path id="path4370" inkscape:connector-curvature="0" class="st0" d="M914.6,260.7c4.4,0,8.2-1.6,11.3-4.7c3.2-3.2,4.7-6.9,4.7-11.3
	c0-4.4-1.6-8.2-4.7-11.3c-3.1-3.1-6.9-4.7-11.3-4.7c-4.4,0-8.2,1.6-11.3,4.7c-3.2,3.2-4.7,6.9-4.7,11.3c0,4.4,1.6,8.2,4.7,11.3
	C906.4,259.2,910.2,260.7,914.6,260.7"/>
</svg>
